<svg width="126" height="33" viewBox="0 0 126 33" fill="none" xmlns="http://www.w3.org/2000/svg">
<path d="M12.922 11.076V8.736C12.922 8.216 12.506 7.8 11.986 7.8H2.496C2.002 7.8 1.586 8.216 1.586 8.736V25.064C1.586 25.584 2.002 26 2.496 26H5.096C5.616 26 6.032 25.584 6.032 25.064V19.656H11.232C11.752 19.656 12.168 19.24 12.168 18.746V16.38C12.168 15.886 11.752 15.47 11.232 15.47H6.032V11.986H11.986C12.506 11.986 12.922 11.57 12.922 11.076ZM24.1176 13.52V14.118C23.3376 13.156 22.1676 12.506 20.3996 12.506C16.2916 12.506 14.0816 15.964 14.0816 19.422C14.0816 22.854 16.2916 26.312 20.3996 26.312C22.1676 26.312 23.3376 25.662 24.1176 24.7V25.298C24.1176 25.688 24.4296 26 24.8196 26H27.4196C27.9396 26 28.3556 25.584 28.3556 25.064V13.754C28.3556 13.234 27.9396 12.818 27.4196 12.818H24.8196C24.4296 12.818 24.1176 13.13 24.1176 13.52ZM21.1536 22.23C19.4116 22.23 18.3456 21.034 18.3456 19.422C18.3456 17.784 19.4116 16.588 21.1536 16.588C22.7396 16.588 23.9876 17.654 23.9876 19.422C23.9876 21.164 22.7396 22.23 21.1536 22.23ZM37.5052 22.23C35.8152 22.23 34.6972 20.956 34.6972 19.422C34.6972 17.862 35.8152 16.588 37.5052 16.588C38.3372 16.588 39.0392 16.9 39.5332 17.394C39.7672 17.628 40.1052 17.68 40.3912 17.524L42.8872 16.042C43.2512 15.808 43.3292 15.34 43.0692 15.002C41.7952 13.468 39.8452 12.506 37.5052 12.506C33.3972 12.506 30.4332 15.496 30.4332 19.422C30.4332 23.322 33.3972 26.312 37.5052 26.312C39.8452 26.312 41.7952 25.35 43.0692 23.816C43.3292 23.504 43.2512 23.01 42.8872 22.776L40.3912 21.32C40.1052 21.138 39.7672 21.19 39.5332 21.424C39.0392 21.918 38.3372 22.23 37.5052 22.23ZM50.9555 12.506C47.1855 12.506 44.1695 15.522 44.1695 19.422C44.1695 23.504 47.1075 26.312 51.5795 26.312C53.7895 26.312 55.6095 25.48 56.7535 24.206C57.0135 23.868 56.9355 23.374 56.5715 23.14L54.7255 22.048C54.4655 21.892 54.1535 21.918 53.9195 22.126C53.4255 22.542 52.6195 22.932 51.5795 22.932C49.9675 22.932 48.6935 22.23 48.2515 20.696H56.9095C57.4035 20.696 57.8195 20.28 57.8195 19.76C57.8975 14.846 54.6475 12.506 50.9555 12.506ZM48.2775 18.148C48.6675 16.692 49.7595 15.886 51.1115 15.886C52.5675 15.886 53.6335 16.588 53.9715 18.148H48.2775ZM71.4474 11.076V8.736C71.4474 8.216 71.0314 7.8 70.5114 7.8H61.0214C60.5274 7.8 60.1114 8.216 60.1114 8.736V25.064C60.1114 25.584 60.5274 26 61.0214 26H63.6214C64.1414 26 64.5574 25.584 64.5574 25.064V19.656H69.7574C70.2774 19.656 70.6934 19.24 70.6934 18.746V16.38C70.6934 15.886 70.2774 15.47 69.7574 15.47H64.5574V11.986H70.5114C71.0314 11.986 71.4474 11.57 71.4474 11.076ZM74.8048 26H77.1708C77.6908 26 78.1068 25.584 78.1068 25.064V13.754C78.1068 13.234 77.6908 12.818 77.1708 12.818H74.8048C74.2848 12.818 73.8688 13.234 73.8688 13.754V25.064C73.8688 25.584 74.2848 26 74.8048 26ZM76.0008 11.336C77.2228 11.336 78.2108 10.348 78.2108 9.126C78.2108 7.904 77.2228 6.916 76.0008 6.916C74.7788 6.916 73.7648 7.904 73.7648 9.126C73.7648 10.348 74.7788 11.336 76.0008 11.336ZM88.8048 12.506C87.0888 12.506 85.9448 13.156 85.2168 14.014V13.52C85.2168 13.13 84.9048 12.818 84.5148 12.818H81.9148C81.3948 12.818 80.9788 13.234 80.9788 13.754V25.064C80.9788 25.584 81.3948 26 81.9148 26H84.2808C84.8008 26 85.2168 25.584 85.2168 25.064V18.902C85.2168 17.42 86.0748 16.64 87.3228 16.64C88.4928 16.64 89.4288 17.368 89.4288 18.902V25.064C89.4288 25.584 89.8448 26 90.3388 26H92.7308C93.2248 26 93.6408 25.584 93.6408 25.064V17.758C93.6408 15.106 92.1068 12.506 88.8048 12.506ZM105.723 8.736V14.118C104.969 13.156 103.799 12.506 102.005 12.506C97.9225 12.506 95.6865 15.964 95.6865 19.422C95.6865 22.854 97.9225 26.312 102.005 26.312C103.799 26.312 104.969 25.662 105.723 24.7V25.298C105.723 25.688 106.035 26 106.425 26H109.025C109.545 26 109.961 25.584 109.961 25.064V8.736C109.961 8.216 109.545 7.8 109.025 7.8H106.659C106.139 7.8 105.723 8.216 105.723 8.736ZM102.785 22.23C101.017 22.23 99.9505 21.034 99.9505 19.422C99.9505 17.784 101.017 16.588 102.785 16.588C104.371 16.588 105.593 17.654 105.593 19.422C105.593 21.164 104.371 22.23 102.785 22.23Z" fill="white"/>
<circle cx="122" cy="22" r="4" fill="#D3CDCF"/>
</svg>
