<svg width="109" height="21" viewBox="0 0 109 21" fill="none" xmlns="http://www.w3.org/2000/svg">
<path d="M11.922 5.076V2.736C11.922 2.216 11.506 1.8 10.986 1.8H1.496C1.002 1.8 0.586 2.216 0.586 2.736V19.064C0.586 19.584 1.002 20 1.496 20H4.096C4.616 20 5.032 19.584 5.032 19.064V13.656H10.232C10.752 13.656 11.168 13.24 11.168 12.746V10.38C11.168 9.886 10.752 9.47 10.232 9.47H5.032V5.986H10.986C11.506 5.986 11.922 5.57 11.922 5.076ZM23.1176 7.52V8.118C22.3376 7.156 21.1676 6.506 19.3996 6.506C15.2916 6.506 13.0816 9.964 13.0816 13.422C13.0816 16.854 15.2916 20.312 19.3996 20.312C21.1676 20.312 22.3376 19.662 23.1176 18.7V19.298C23.1176 19.688 23.4296 20 23.8196 20H26.4196C26.9396 20 27.3556 19.584 27.3556 19.064V7.754C27.3556 7.234 26.9396 6.818 26.4196 6.818H23.8196C23.4296 6.818 23.1176 7.13 23.1176 7.52ZM20.1536 16.23C18.4116 16.23 17.3456 15.034 17.3456 13.422C17.3456 11.784 18.4116 10.588 20.1536 10.588C21.7396 10.588 22.9876 11.654 22.9876 13.422C22.9876 15.164 21.7396 16.23 20.1536 16.23ZM36.5052 16.23C34.8152 16.23 33.6972 14.956 33.6972 13.422C33.6972 11.862 34.8152 10.588 36.5052 10.588C37.3372 10.588 38.0392 10.9 38.5332 11.394C38.7672 11.628 39.1052 11.68 39.3912 11.524L41.8872 10.042C42.2512 9.808 42.3292 9.34 42.0692 9.002C40.7952 7.468 38.8452 6.506 36.5052 6.506C32.3972 6.506 29.4332 9.496 29.4332 13.422C29.4332 17.322 32.3972 20.312 36.5052 20.312C38.8452 20.312 40.7952 19.35 42.0692 17.816C42.3292 17.504 42.2512 17.01 41.8872 16.776L39.3912 15.32C39.1052 15.138 38.7672 15.19 38.5332 15.424C38.0392 15.918 37.3372 16.23 36.5052 16.23ZM49.9555 6.506C46.1855 6.506 43.1695 9.522 43.1695 13.422C43.1695 17.504 46.1075 20.312 50.5795 20.312C52.7895 20.312 54.6095 19.48 55.7535 18.206C56.0135 17.868 55.9355 17.374 55.5715 17.14L53.7255 16.048C53.4655 15.892 53.1535 15.918 52.9195 16.126C52.4255 16.542 51.6195 16.932 50.5795 16.932C48.9675 16.932 47.6935 16.23 47.2515 14.696H55.9095C56.4035 14.696 56.8195 14.28 56.8195 13.76C56.8975 8.846 53.6475 6.506 49.9555 6.506ZM47.2775 12.148C47.6675 10.692 48.7595 9.886 50.1115 9.886C51.5675 9.886 52.6335 10.588 52.9715 12.148H47.2775Z" fill="#F3346A"/>
<path d="M70.4474 5.076V2.736C70.4474 2.216 70.0314 1.8 69.5114 1.8H60.0214C59.5274 1.8 59.1114 2.216 59.1114 2.736V19.064C59.1114 19.584 59.5274 20 60.0214 20H62.6214C63.1414 20 63.5574 19.584 63.5574 19.064V13.656H68.7574C69.2774 13.656 69.6934 13.24 69.6934 12.746V10.38C69.6934 9.886 69.2774 9.47 68.7574 9.47H63.5574V5.986H69.5114C70.0314 5.986 70.4474 5.57 70.4474 5.076ZM73.8048 20H76.1708C76.6908 20 77.1068 19.584 77.1068 19.064V7.754C77.1068 7.234 76.6908 6.818 76.1708 6.818H73.8048C73.2848 6.818 72.8688 7.234 72.8688 7.754V19.064C72.8688 19.584 73.2848 20 73.8048 20ZM75.0008 5.336C76.2228 5.336 77.2108 4.348 77.2108 3.126C77.2108 1.904 76.2228 0.915999 75.0008 0.915999C73.7788 0.915999 72.7648 1.904 72.7648 3.126C72.7648 4.348 73.7788 5.336 75.0008 5.336ZM87.8048 6.506C86.0888 6.506 84.9448 7.156 84.2168 8.014V7.52C84.2168 7.13 83.9048 6.818 83.5148 6.818H80.9148C80.3948 6.818 79.9788 7.234 79.9788 7.754V19.064C79.9788 19.584 80.3948 20 80.9148 20H83.2808C83.8008 20 84.2168 19.584 84.2168 19.064V12.902C84.2168 11.42 85.0748 10.64 86.3228 10.64C87.4928 10.64 88.4288 11.368 88.4288 12.902V19.064C88.4288 19.584 88.8448 20 89.3388 20H91.7308C92.2248 20 92.6408 19.584 92.6408 19.064V11.758C92.6408 9.106 91.1068 6.506 87.8048 6.506ZM104.723 2.736V8.118C103.969 7.156 102.799 6.506 101.005 6.506C96.9225 6.506 94.6865 9.964 94.6865 13.422C94.6865 16.854 96.9225 20.312 101.005 20.312C102.799 20.312 103.969 19.662 104.723 18.7V19.298C104.723 19.688 105.035 20 105.425 20H108.025C108.545 20 108.961 19.584 108.961 19.064V2.736C108.961 2.216 108.545 1.8 108.025 1.8H105.659C105.139 1.8 104.723 2.216 104.723 2.736ZM101.785 16.23C100.017 16.23 98.9505 15.034 98.9505 13.422C98.9505 11.784 100.017 10.588 101.785 10.588C103.371 10.588 104.593 11.654 104.593 13.422C104.593 15.164 103.371 16.23 101.785 16.23Z" fill="#0886C7"/>
</svg>
